<?xml version="1.0" encoding="UTF-8"?>
<svg id="Layer_1" data-name="Layer 1" xmlns="http://www.w3.org/2000/svg" viewBox="0 0 529.58 339.38">
  <defs>
    <style>
      .cls-1 {
        fill: #231f20;
      }

      .cls-2 {
        fill: #5f716a;
      }
    </style>
  </defs>
  <g>
    <path class="cls-1" d="M450.51,338.64c-1.89.29-3.4.26-5.38.21l-32.02-40.03-26.72-33.08.06,63.52c0,4.03,6.72,6.26,8.05,6.91.34.17-.16,1.76-.74,1.76h-19.16c-.58,0-1.36-.43-1.51-.75-.99-2.11,5.26-.89,7.18-7,1.03-3.27.43-6.75.43-10.38l.04-56.25c0-3.48.34-5.53-2.38-8.32-5.35-5.5-6.82-2.84-7-4.99-.04-.47.91-1.19,1.46-1.19h19l7.77,10,8.49,10.66,36.69,45.96v-55.76c.96-4.17-4.18-8.35-7.78-8.49l.36-1.79c.08-.4,1.67-.06,1.67-.06l18.31-.08c.63,0,1.65.74,1.58,1.25-.34,2.61-8.47.5-8.46,12.23l.04,75.68Z"/>
    <path class="cls-1" d="M525.52,327.49c-13.51,17.59-42.7,13.36-59.55,2.2l-.09-18.16c0-.43.45-1.25.73-1.48,2.85-2.31,2.1,13.77,19.81,22.47,3.97,1.95,11.44,2.51,15.98,1.83,5.22-.78,10.63-3.69,13.18-8.61,1.17-2.27,1.1-5.53,1.16-8.06.1-4.91-2.31-8.63-6.37-11.33-6.94-4.61-14.78-7.63-22.63-10.76-7.11-2.84-15.54-7.74-18.84-15.04-4.07-8.99-1.38-20.63,6.77-26.37,14.96-10.54,33.66-7.66,48.18,1.75l.04,16.57c0,.8-.64,1.93-1.24,1.95-1.27.05-1.48-.84-1.79-2.08-3.16-12.61-14.02-22.09-28.03-19.85-5.05.81-9.65,2.86-12.48,7.3-1.18,1.85-1.34,4.18-1.44,6.41-.5,11.17,11.3,14.93,20.26,18.68l9.15,3.83c10.51,4.4,20.82,11.76,21.25,24.25.19,5.39-.82,10.32-4.04,14.51Z"/>
    <path class="cls-1" d="M32.78,293.99l-10.14.14v36.76c1.17,1.88,3.61,2.36,5.62,2.37h13.51c4.93.02,9.85.11,14.34-2.24,5.08-2.66,8.49-7.76,9.81-13.34l2.55-.42-.87,5.93-.68,5.22-1.12,9.5-63.2.03c-.82,0-1.58-.13-1.74-.57-.96-2.69,7.3-1.58,7.31-9.8l.05-67.63c0-3.9-2.33-7.36-5.8-8.43l-1.73-.53c-1.08-.33-.84-1.93.29-1.93l60.89-.07c.9,3.51,1.34,6.71,1.79,10.34l.85,6.8c.08.61-2.15.94-2.32.35-1.3-4.53-4.09-8.47-8.41-10.53-1.51-.42-3.77-1.75-5.3-1.83-8.75-.43-17.1-.32-25.85-.24l.02,36,15.57.02c2.36,0,5.26-.47,7.15-1.74,2.78-1.87,3.56-5.25,3.97-8.13.32-.23,2.01-.44,2.24,0s.49,1.51.49,2.19v20.83c-.19.18-1.65.34-2.11.22-1.15-.31-1.88-8.62-7.79-9.01-2.99-.2-6.15-.3-9.41-.26Z"/>
    <path class="cls-1" d="M341.89,293.99h-20.6s.05,35.68.05,35.68c0,2.17,2.53,3.6,4.2,3.59l21.14-.09c3.16-.01,6.86-.93,9.56-2.42,7.56-4.16,9.01-12.09,9.87-13.32.27-.4,2.05.27,2.01.76l-1.19,9.03-1.4,10.69h-63.62l-1.78.08c-.37.02-.59-1.05-.53-1.42.07-.46.74-.98,1.5-1.24,2.4-.82,5.74-3.13,5.71-6.31l.52-50.49v-18.13c-.22-4.66-2.91-8.45-7.57-9.12-.5-.16.69-2.24.69-2.24l59.99-.02c1.08,1.84,1.07,3.56,1.39,5.48l1.67,9.8c.13.79.06,1.94-.52,2.14-2.96,1.05-1.93-6.01-9.21-10.23-2.22-.42-4.81-2.1-7.05-2.14l-25.45-.47v35.99c6.23.02,12.36-.01,18.48-.32,4.73-.24,7.85-3.7,8.08-8.21l.82-1.96c.18-.44,2.08.11,2.08.63l.11,22.41c0,.84-.3,1.73-.69,1.7-2.62-.19-1.88-4.16-4.75-7.53l-3.52-2.32Z"/>
    <path class="cls-1" d="M116.97,298.97l.22,6.38.18,24.2c.03,3.56,6.98,6.08,7.37,6.34s.2,2.03-.31,2.02l-28.98-.05c-.47,0-.83-1.41-.54-1.61,1.4-.96,7.83-1.67,7.81-9.15v-26.78l-6.94-11.18-12.05-19.97c-3.15-5.22-9.66-18.05-15.37-17.86-.49-.05-.51-2.1-.01-2.26h28.92c2.26,2.82-2.56,1.8-4.5,4.4-.7.95-.63,3.2.07,4.36l21.32,35.57c2.67-3.56,4.6-7.12,6.71-10.78l13.81-23.97c.7-1.21.52-3.51.11-4.6-.51-1.34-2.53-2.31-4.1-2.61-.59-.11-.68-2.23-.04-1.85h18.57c.43-.43,1.44.13,1.62.47,1.05,2.03-6.03,1.14-10.35,8.48l-12.22,20.76-11.3,19.7Z"/>
    <path class="cls-1" d="M286.75,328.13c5.14-4.33,4.19-10.88,7.39-10.48.51.06.72,1.31.62,1.98l-1.28,8.73-1.44,9.55-62.33.02c-.9,0-1.66-.49-1.78-1.29-.26-1.78,7.09-1.31,7.07-9.05l-.13-70.01c0-4.36-5.47-5.88-6.93-6.56-.4-.19-.06-1.99.59-1.99h27.48c.45,0,1.25.9,1.1,1.21-.2.39-.99,1.24-1.48,1.27-3.52.27-6.16,3.59-6.16,7.64l-.07,69.06c.58,2.63,1.4,5.05,4.32,5.04l20.94-.05c4.75-.01,8.44-2.01,12.09-5.08Z"/>
    <path class="cls-1" d="M201.92,333.18c14.27-.05,17.41-14.45,18.46-15.42.35-.32,1.86.31,1.84.85-.66,5.89-1.41,12.8-3.01,19.29h-64.14c-.77,0-1.05-1.41-.76-1.66,1.54-1.3,6.24-2.57,6.29-6.6l.28-21.52.2-10.77c5.02.24,9.51.95,14.5,2.24l.08,29.29c0,2.43,2.02,4.38,4.32,4.37l21.95-.08Z"/>
    <path class="cls-1" d="M175.58,253.76l-.08,28.5c0,.39-.44,1.49-.76,1.57-2.9.65-9.17-.8-12.87-.38-.91-.37-.93-2.32-.9-3.61.16-7.66.22-15.15-.11-22.66-.21-4.84-5.36-5.03-7.03-6.51-.27-.24.23-1.64.99-1.64l60.19.03c.38,1.9.72,3.44.84,4.96l.81,10.37c.06.78.14,1.77-.35,1.79-.64.03-1.63-.44-1.81-.95-1.43-4.18-4.16-7.45-7.85-9.45-3.6-1.35-7.11-2.13-10.88-2.09l-20.2.07Z"/>
    <path class="cls-2" d="M153.14,294.69c-10.58,1.13-13.34,4-21.71,9.57.97-3.45,3.44-4.89,5.62-6.99,5.89-5.68,13.47-8.83,21.74-9.72,11.73-1.26,24.43,3.71,36.76,3.27,6.61-.24,14.83-1.73,19.86-5.97l5.5-4.64c.08,2.39-1.37,3.16-2.41,4.58-3.15,4.32-7.25,7.27-12.18,9.47-5.48,2.45-15.74,4.55-21.66,3.61l-14.37-2.28c-5.17-.82-12-1.44-17.16-.89Z"/>
  </g>
  <g>
    <path class="cls-2" d="M230.84,72.57c0-.99.56-2.26,1.09-2.56.62-.36,2.45-.21,3.06.34l5.1,4.61,10.81,9.83,5.73,5.14,6.87,6.48,7.75,6.76,9.37,8.19,10.78,9.31,4.77,4.19,6.74,5.59,6.61,5.29c9.91,7.92,20.16,11.23,32.88,11.23,4.96,0,9.37-.53,14.08-1.96,9.8-2.98,10.53-3.13,19.41-8.71,4.14-2.6,11.64-10.26,14.62-14.31,0,0,2.63-3.74,4.61-7.88,5.41-11.3,11.05-42.85-8.7-65.66,0,0-11.03-12.9-27.9-18.01-4.04-1.22-7.89-1.73-11.88-2.33-3.97-.6-7.76-.24-11.68.4-11.75,1.91-21.66,6.19-30.54,14.03l-2.57,2.26c-3.78,3.33-6.92-1.72-11.53-5.62-2.85-2.41-5.54-4.68-8.2-7.31-1.47-1.45-2.47-3.16-1.47-5.43.91-2.08,3.05-3.43,4.75-4.9,10.2-8.8,24.58-16.68,37.87-18.96l13.07-2.25c8.11-.72,19.03-.53,31.13,3.09,3.71,1.11,22.47,7.01,38.65,24.84,5.4,5.96,9.05,11.63,11.39,15.75,4.14,6.62,6.73,12.65,8.37,17.25,0,0,2.51,6.92,3.76,14.17,3.24,18.9-4.13,39.42-6.04,44.47l-2.67,5.58c-2.21,4.62-7.05,12.64-10.03,16.35l-3.73,4.63c-2.22,2.76-4.87,5.49-7.64,7.72l-5.14,4.14c-2.77,2.23-5.76,4.04-8.86,5.66-1.96,1.03-10.11,4.96-11.45,5.36l-9.31,2.78c.61-.18-12.64,2.13-12.62,2.2,0,0,.03,0,.03,0,0,0-10.22.64-18.52.02-5.79-.44-13.92-1.74-23.5-5.61-12.21-4.43-20.52-11.85-30.16-20.03l-7.01-5.94-11.16-10.06-9.08-7.97-8.26-7.26-4.27-3.9c-3.53-3.23-9.3-7.42-9.31-13.3l-.04-27.7Z"/>
    <path class="cls-2" d="M149.09,131.46c6.69,6.31,16.76,11.96,25.81,14.01,1.72.39,4.13,1.25,5.91,1.28,5.7.11,11.34.62,16.69-.31,11.75-2.04,21.85-7.15,30.49-15.09,1.66-1.53,3.82-3.08,5.92-1.31l3.59,3.02,9.24,8.35c1.55,1.4,3.92,3.11,4.01,5.49.07,1.77-2.12,3.96-3.57,5.27-10.65,9.69-25.81,17.8-39.93,20.57l-6.04,1.19c-6.99,1.37-18.01,1.83-25.03.43l-5.14-1.02c-1.62-.32-4.16-.53-5.55-1.03l-8.41-3.02c-1.25-.45-2.82-1.4-4.15-1.96-11.79-4.91-23.65-14.55-31.97-24.22-1.44-1.68-2.71-3.6-4.02-5.37-3.77-5.08-6.69-10.37-9.16-16.16-2.62-6.13-5.71-18.28-6.25-24.86-1.88-23.24,4.2-45.14,18.65-63.26,3.24-4.07,7.8-9.67,11.71-12.59l7.13-5.33c7.49-5.6,21.55-11.16,30.9-12.97,3.69-.71,10.08-2.27,18.62-2.37,4.16-.05,20.57.09,38.95,9.29,5.54,2.77,13.47,7.48,21.61,15.23l7.28,6.26,13.23,12,12.96,11.39c5.53,4.86,10.82,9.68,15.96,14.91.39,11.45.77,22.89,1.16,34.34,0,.8-1.28,1.74-1.86,1.75-.68,0-2.11-.51-2.65-1l-5.99-5.41-9.82-8.94-11.89-10.75-8.18-7.31-2.72-2.51-8.71-7.79-8.75-7.84-8.53-7.51c-12.11-10.67-23.27-17.18-39.82-18.28-1.85-.12-3.65-.3-5.5-.07-11.72,1.45-20.5,3.96-30.18,10.75-10.45,7.33-16.8,15.44-21.74,27.08-1.26,2.97-3.69,11.3-3.71,14.23l-.06,13.53c-.01,3.2,1.07,6.35,1.93,9.38,3.47,12.18,8.42,19.84,17.61,28.51Z"/>
    <path class="cls-2" d="M98.38,110.03l1.53,5.41c.47,1.67,1.72,4.56-.57,5.6-3.39,1.54-7.45.38-11.08.37l-18.63-.04c-1.44,0-3.96.7-4.88-.75-.62-.99-1.28-3.13-1.28-4.44v-57.34c.07-.58.18-1.4.38-2.38.25-1.25.38-1.88.65-2.31.89-1.4,3.15-1.47,4.06-1.45h29.51c.78-.01,2.19.7,2.53,1.31.46.81.25,2.29-.02,3.28l-2.79,10.28c-.18.79-.42,1.89-.65,3.22-.44,2.51-.77,5.2-.98,9.34-.16,3.24-.28,7.74-.07,13.28l1.07,10.39c.19,1.87.65,4.27,1.21,6.24Z"/>
    <path class="cls-2" d="M432.94,110.48l-1.53,5.41c-.47,1.67-1.72,4.56.57,5.6,3.39,1.54,7.45.38,11.08.37l18.63-.04c1.44,0,3.96.7,4.88-.75.62-.99,1.28-3.13,1.28-4.44v-57.34c-.07-.58-.18-1.4-.38-2.38-.25-1.25-.38-1.88-.65-2.31-.89-1.4-3.15-1.47-4.06-1.45h-29.51c-.78-.01-2.19.7-2.53,1.31-.46.81-.25,2.29.02,3.28l2.79,10.28c.18.79.42,1.89.65,3.22.44,2.51.77,5.2.98,9.34.16,3.24.28,7.74.07,13.28l-1.07,10.39c-.19,1.87-.65,4.27-1.21,6.24Z"/>
  </g>
</svg>